# xmcd CD database file
#
# Track frame offsets:
#	150
#	16801
#	36628
#	50653
#	75603
#	96073
#	115350
#	134325
#	154821
#	205038
#	219827
#	247831
#	268413
#	289257
#	305408
#	345917
#
# Disc length: 4759 seconds
#
# Revision: 0
# Processed by: cddbd v1.5.2PL0 Copyright (c) Steve Scherf et al.
# Submitted via: CDex 1.70beta2
#
DISCID=e2129510
DTITLE=Gary Burton - Conception - CD2
DYEAR=2014
DGENRE=Jazz
TTITLE0=Joy Spring
TTITLE1=Over the Rainbow
TTITLE2=Like Someone in Love
TTITLE3=Minor Blues
TTITLE4=Our Waltz
TTITLE5=So Many Things
TTITLE6=Sir John
TTITLE7=You Stepped out of a Dream
TTITLE8=Relaxin'
TTITLE9=Nashville to Newport
TTITLE10=Opus de Funk
TTITLE11='S Wonderful
TTITLE12='Round Midnight
TTITLE13=Frankie and Johnny
TTITLE14=Riot-Chous
TTITLE15=Last Date
EXTD=YEAR: 2014
EXTT0=
EXTT1=
EXTT2=
EXTT3=
EXTT4=
EXTT5=
EXTT6=
EXTT7=
EXTT8=
EXTT9=
EXTT10=
EXTT11=
EXTT12=
EXTT13=
EXTT14=
EXTT15=
PLAYORDER=
